<?xml version="1.0" encoding="UTF-8"?>
<svg version="1.1" xmlns="http://www.w3.org/2000/svg" width="96" height="96">
<path d="M0 0 C5.75162467 0.04132362 8.36873716 1.67055273 12.42904663 5.63809204 C13.07556183 6.29989471 13.72207703 6.96169739 14.38818359 7.64355469 C15.08985657 8.33792633 15.79152954 9.03229797 16.51446533 9.74771118 C18.82416059 12.04122666 21.11147905 14.35570405 23.3984375 16.671875 C24.99927272 18.2737477 26.60114556 19.87458406 28.20401001 21.47442627 C31.55717178 24.82776734 34.89976693 28.19119343 38.23486328 31.5625 C42.51201722 35.88506459 46.81100339 40.18509454 51.11765099 44.47825241 C54.42637792 47.78029986 57.72505528 51.09223648 61.02058792 54.40744781 C62.60238168 55.99694323 64.18688532 57.58374661 65.77412033 59.16780853 C67.98885112 61.38179835 70.19014505 63.60832086 72.38818359 65.83886719 C73.04684418 66.49257294 73.70550476 67.14627869 74.38412476 67.8197937 C76.91914278 70.4149718 78.75062864 72.33706698 80.03823853 75.7600708 C80 78 80 78 78 81 C75.25 81.5625 75.25 81.5625 72 81 C71.23187988 80.01209473 70.46375977 79.02418945 69.67236328 78.00634766 C66.5685249 74.78793686 64.09524275 74.50258713 59.69091797 74.29052734 C57.12466755 74.27661522 54.5581269 74.29363217 51.9921875 74.3359375 C50.62028394 74.3348426 49.24837952 74.33052876 47.87649536 74.32315063 C44.27739742 74.30978299 40.67930258 74.32851645 37.08032227 74.35760498 C31.31380308 74.40308981 25.54781776 74.41857162 19.78116226 74.39805984 C17.77141743 74.39843209 15.76173222 74.42490012 13.75216675 74.45175171 C12.5305484 74.45139923 11.30893005 74.45104675 10.05029297 74.45068359 C8.9758493 74.45989838 7.90140564 74.46911316 6.79440308 74.47860718 C3.23698386 73.86931556 2.0827028 72.92311664 0 70 C-0.48774719 67.41992188 -0.48774719 67.41992188 -0.4699707 64.46875 C-0.47289627 63.36080078 -0.47582184 62.25285156 -0.47883606 61.11132812 C-0.46132797 59.91958984 -0.44381989 58.72785156 -0.42578125 57.5 C-0.42249313 56.27216797 -0.41920502 55.04433594 -0.41581726 53.77929688 C-0.40539407 51.18353985 -0.38544043 48.58780622 -0.35668945 45.9921875 C-0.31267151 42.015495 -0.29526181 38.03940581 -0.28320312 34.0625 C-0.26977671 31.54165795 -0.2548531 29.02082334 -0.23828125 26.5 C-0.23089432 25.30826172 -0.22350739 24.11652344 -0.21589661 22.88867188 C-0.20306137 21.78072266 -0.19022614 20.67277344 -0.17700195 19.53125 C-0.16715775 18.55736328 -0.15731354 17.58347656 -0.14717102 16.58007812 C0 14 0 14 0.60481262 11.77539062 C0.80043037 10.89657227 0.80043037 10.89657227 1 10 C0.505 9.360625 0.01 8.72125 -0.5 8.0625 C-2 6 -2 6 -1.75 3.3125 C-1 1 -1 1 0 0 Z M25 46 C23.17511559 48.06663 21.48562191 50.12885545 19.8125 52.3125 C19.33619141 52.90740234 18.85988281 53.50230469 18.36914062 54.11523438 C17.16035016 55.68088917 16.07076497 57.33689697 15 59 C15.33 59.99 15.66 60.98 16 62 C28.21 62 40.42 62 53 62 C48.94500008 57.26916675 45.75103691 53.73295757 41 50 C39.68 51.65 38.36 53.3 37 55 C33.78450781 53.62193192 32.02779999 52.11390261 29.875 49.375 C28.43831282 47.49549039 28.43831282 47.49549039 27 46 C26.34 46 25.68 46 25 46 Z " fill="#D3DADF" transform="translate(8,6)"/>
<path d="M0 0 C7.18981902 -0.10136217 14.37945402 -0.1714496 21.56982422 -0.21972656 C24.01618333 -0.23985052 26.46249429 -0.2671526 28.90869141 -0.30175781 C32.42362341 -0.35023963 35.93791984 -0.37296128 39.453125 -0.390625 C40.5480426 -0.41127014 41.64296021 -0.43191528 42.77105713 -0.45318604 C43.79181335 -0.45348816 44.81256958 -0.45379028 45.86425781 -0.45410156 C46.76138489 -0.46298401 47.65851196 -0.47186646 48.58282471 -0.48101807 C51.85931719 0.17100419 53.02055538 1.342107 55 4 C55.48101807 6.41717529 55.48101807 6.41717529 55.45410156 9.13574219 C55.45379944 10.15649841 55.45349731 11.17725464 55.45318604 12.22894287 C55.43254089 13.32386047 55.41189575 14.41877808 55.390625 15.546875 C55.38496521 16.6732135 55.37930542 17.799552 55.37347412 18.96002197 C55.35108545 22.55711382 55.30088213 26.15320926 55.25 29.75 C55.22993833 32.1887877 55.21168698 34.62759101 55.1953125 37.06640625 C55.15121244 43.04461074 55.08427463 49.02223419 55 55 C48.56297913 49.69295037 42.70276816 43.84877248 36.81640625 37.94921875 C35.75038487 36.88387202 34.68421517 35.81867368 33.61790466 34.75361633 C31.39834689 32.53552414 29.18058646 30.31565488 26.96411133 28.09448242 C24.11705865 25.24169116 21.26548334 22.3934692 18.41258335 19.54652691 C16.21728754 17.35483204 14.02436332 15.16077679 11.83216667 12.96598244 C10.78067437 11.91382173 9.72843507 10.86240701 8.67544746 9.81174278 C7.21292791 8.35174657 5.75362438 6.88861211 4.29516602 5.42456055 C3.46356461 4.59216354 2.6319632 3.75976654 1.77516174 2.90214539 C0 1 0 1 0 0 Z M37 17 C36.67 18.65 36.34 20.3 36 22 C38.475 22.495 38.475 22.495 41 23 C41.33 21.35 41.66 19.7 42 18 C40.35 17.67 38.7 17.34 37 17 Z " fill="#D1D9DE" transform="translate(33,16)"/>
</svg>
