<svg width="240" height="240" viewBox="0 0 240 240" fill="none" xmlns="http://www.w3.org/2000/svg">
<rect x="1.5" y="1.5" width="237" height="237" rx="118.5" stroke="white" stroke-width="3"/>
<path d="M125.737 171V61.9091H88.8763C80.3536 61.9091 73.3579 63.3651 67.8891 66.277C62.4204 69.1534 58.3721 73.1129 55.7442 78.1555C53.1164 83.1982 51.8025 88.9332 51.8025 95.3608C51.8025 101.788 53.1164 107.488 55.7442 112.46C58.3721 117.431 62.4026 121.337 67.8358 124.178C73.2691 126.984 80.2116 128.386 88.6633 128.386H118.493V116.455H89.0894C83.2655 116.455 78.578 115.602 75.0269 113.898C71.4403 112.193 68.8479 109.778 67.2499 106.653C65.6164 103.493 64.7996 99.7287 64.7996 95.3608C64.7996 90.9929 65.6164 87.1754 67.2499 83.9084C68.8834 80.6413 71.4935 78.12 75.0802 76.3445C78.6668 74.5334 83.4076 73.6278 89.3025 73.6278H112.527V171H125.737ZM74.3877 121.994L47.5411 171H62.882L89.3025 121.994H74.3877Z" fill="white"/>
<path d="M111.284 171V61.9091H124.495V116.028H125.773L174.779 61.9091H192.037L146.228 111.128L192.037 171H176.057L138.131 120.29L124.495 135.631V171H111.284Z" fill="white"/>
</svg>
